<svg width="1440" height="481" viewBox="0 0 1440 481" fill="none" xmlns="http://www.w3.org/2000/svg">
<line x1="1476" y1="160.5" x2="-36" y2="160.5" stroke="black" stroke-opacity="0.08"/>
<line x1="1476" y1="0.5" x2="-36" y2="0.499965" stroke="black" stroke-opacity="0.08"/>
<line x1="1476" y1="320.5" x2="-36" y2="320.5" stroke="black" stroke-opacity="0.08"/>
<line x1="1476" y1="240.5" x2="-36" y2="240.5" stroke="black" stroke-opacity="0.08"/>
<line x1="1476" y1="80.5" x2="-36" y2="80.5" stroke="black" stroke-opacity="0.08"/>
<line x1="1476" y1="400.5" x2="-36" y2="400.5" stroke="black" stroke-opacity="0.08"/>
<line x1="1476" y1="480.5" x2="-36" y2="480.5" stroke="black" stroke-opacity="0.08"/>
<line x1="604.5" y1="2.18557e-08" x2="604.5" y2="480" stroke="black" stroke-opacity="0.08"/>
<line x1="284.5" y1="2.18557e-08" x2="284.5" y2="480" stroke="black" stroke-opacity="0.08"/>
<line x1="924.5" y1="2.18557e-08" x2="924.5" y2="480" stroke="black" stroke-opacity="0.08"/>
<line x1="1404.5" y1="2.18557e-08" x2="1404.5" y2="480" stroke="black" stroke-opacity="0.08"/>
<line x1="124.5" y1="2.18557e-08" x2="124.5" y2="480" stroke="black" stroke-opacity="0.08"/>
<line x1="764.5" y1="2.18557e-08" x2="764.5" y2="480" stroke="black" stroke-opacity="0.08"/>
<line x1="1244.5" y1="2.18557e-08" x2="1244.5" y2="480" stroke="black" stroke-opacity="0.08"/>
<line x1="444.5" y1="2.18557e-08" x2="444.5" y2="480" stroke="black" stroke-opacity="0.08"/>
<line x1="1084.5" y1="2.18557e-08" x2="1084.5" y2="480" stroke="black" stroke-opacity="0.08"/>
<line x1="44.5001" y1="2.18557e-08" x2="44.5" y2="480" stroke="black" stroke-opacity="0.08"/>
<line x1="684.5" y1="2.18557e-08" x2="684.5" y2="480" stroke="black" stroke-opacity="0.08"/>
<line x1="364.5" y1="2.18557e-08" x2="364.5" y2="480" stroke="black" stroke-opacity="0.08"/>
<line x1="1004.5" y1="2.18557e-08" x2="1004.5" y2="480" stroke="black" stroke-opacity="0.08"/>
<line x1="204.5" y1="2.18557e-08" x2="204.5" y2="480" stroke="black" stroke-opacity="0.08"/>
<line x1="844.5" y1="2.18557e-08" x2="844.5" y2="480" stroke="black" stroke-opacity="0.08"/>
<line x1="1324.5" y1="2.18557e-08" x2="1324.5" y2="480" stroke="black" stroke-opacity="0.08"/>
<line x1="524.5" y1="2.18557e-08" x2="524.5" y2="480" stroke="black" stroke-opacity="0.08"/>
<line x1="1164.5" y1="2.18557e-08" x2="1164.5" y2="480" stroke="black" stroke-opacity="0.08"/>
</svg>
